PathFileType	4	(X/Y/Z)	29_2_48_p0_0-624.trc
DataRate	CameraRate	NumFrames	NumMarkers	Units	OrigDataRate	OrigDataStartFrame	OrigNumFrames
60.0	60.0	6	27	m	60.0	0	625
Frame#	Time	RHip			RKnee			RAnkle			RBigToe			RSmallToe			RHeel			LHip			LKnee			LAnkle			LBigToe			LSmallToe			LHeel			Neck			Head			Nose			RShoulder			RElbow			RWrist			RThumb			RIndex			RPinky			LShoulder			LElbow			LWrist			LThumb			LIndex			LPinky			
		X1	Y1	Z1	X2	Y2	Z2	X3	Y3	Z3	X4	Y4	Z4	X5	Y5	Z5	X6	Y6	Z6	X7	Y7	Z7	X8	Y8	Z8	X9	Y9	Z9	X10	Y10	Z10	X11	Y11	Z11	X12	Y12	Z12	X13	Y13	Z13	X14	Y14	Z14	X15	Y15	Z15	X16	Y16	Z16	X17	Y17	Z17	X18	Y18	Z18	X19	Y19	Z19	X20	Y20	Z20	X21	Y21	Z21	X22	Y22	Z22	X23	Y23	Z23	X24	Y24	Z24	X25	Y25	Z25	X26	Y26	Z26	X27	Y27	Z27	
0	0.0	0.3470755466657943	0.5805923334731656	0.9554726181703364	0.3062898610257151	0.6928708666075035	1.356905237832297	0.27868465330873876	0.8237113287925373	1.7392764118746917	0.28077845244835614	0.6302757662812296	1.7675281413267643	0.31931569926580383	0.6653251211516144	1.7717505927441624	0.26255944213041305	0.86878915166177	1.7890544253980727	0.13270295945708865	0.5903420111078496	0.9512666861278946	0.11720853248836849	0.6941111550519217	1.3352709765117992	0.09615755687305448	0.7877541938265853	1.719738899639163	0.12435436950459396	0.5935097341606039	1.7437891959407366	0.0721339935059562	0.6501294318237079	1.74776847761026	0.11300498343955595	0.8258197591854494	1.7592682834012792	0.2820094404947574	0.4658176090380413	0.393377850733438	0.2842941553740751	0.4138981375198694	0.16976712427346674	0.2690745204784598	0.33252996636085386	0.2789683492474174	0.42276594305950826	0.46108058222874093	0.4781872074501732	0.4492824107672039	0.4795897425976858	0.73179890962202	0.32530518517891954	0.3841144034478377	0.9166697582855806	0.23983787853480257	0.4144429464242511	0.9980961585609875	0.23722028494159514	0.4028578529469691	1.0008059249253694	0.24290616021798145	0.42976061446495295	1.0009467907006382	0.122908722981796	0.43227728435655993	0.44985083416920907	0.04409229128539336	0.5156251072365984	0.7069658421275958	0.16575191469408457	0.3942671648573103	0.908288230859437	0.24817383393510636	0.41148810502636163	0.9625880319768736	0.2518173662157108	0.41543491317860437	0.9974164304438355	0.23854228555979964	0.4170064997317443	1.002658175679568
1	0.016666666666666666	0.34718788888083085	0.5805457402754002	0.9553861597760073	0.31056301285833304	0.6942381768996523	1.3574156831580468	0.27859810234482724	0.8238056407271209	1.7393454499674577	0.28696691454842577	0.6592163422280122	1.780803607505539	0.3294041260461134	0.6915175454164825	1.7823200492917028	0.25902724453767534	0.853887933555174	1.7811053400072694	0.1325215849417219	0.5883782571124683	0.9468506561408921	0.11798071236649646	0.6904588852525061	1.3252488110843972	0.0961210698060165	0.7878205112907026	1.7197485678845144	0.12026297523819124	0.6189840250683741	1.7518614131800627	0.066670853512403	0.6665354692378836	1.7604008881355535	0.11335326014760447	0.8271936741995095	1.7600711121658186	0.2820103109445738	0.4658668538147738	0.39337040712786375	0.2842227011297408	0.4139625217860918	0.1697040716007978	0.26909597520828427	0.3323222200294196	0.2822117665592509	0.42278303007283274	0.4611211268124939	0.478286738046942	0.44533956064646757	0.49411338457509446	0.7295418266268968	0.32815154573626293	0.39546683001446514	0.9185985612892884	0.23968167143239413	0.4150950471402346	0.9941764842415056	0.23970094693727909	0.4140726062303512	1.0024353283279448	0.24248572230724805	0.4280742989746546	0.9969198623387995	0.1266369955421888	0.43397277600309553	0.4502180948257342	0.04355225586495823	0.5166086453652986	0.7102587386650168	0.16579402952406516	0.3945487246526431	0.908055604787716	0.25195007287889926	0.4140827121074135	0.9591507796206613	0.25185784736689215	0.4154459461665453	0.9972378711258707	0.23736205028142668	0.44028415695940226	1.0036644124882608
2	0.03333333333333333	0.34678995045232114	0.5784719797216157	0.951008692472926	0.31054235789576123	0.6940256683753165	1.3573476005756562	0.27735094928535076	0.8253624496794149	1.744150640827413	0.2870205578380318	0.6590946164770802	1.7808094047700675	0.3267619630887798	0.6795946777932406	1.77734107701612	0.2597690226347216	0.8580634334145547	1.7819861004866193	0.1323961940909963	0.5892379294427185	0.9431387360360147	0.11752450168965681	0.6877195944954668	1.3199910259575505	0.09613554771732746	0.7876666497961565	1.719715219671414	0.12544846441278432	0.6031252873338847	1.7453715104739673	0.07278844572708479	0.6512554367776804	1.7543063757312038	0.11360025565362622	0.8273127067056676	1.7602926811469621	0.28200576072614847	0.4658953714298991	0.393372063646319	0.2885885079824249	0.4015482389986225	0.17110213344415945	0.2690787407289388	0.3325780336172277	0.2789383954315025	0.4228767449665018	0.46067836503387755	0.48165042151647597	0.445025605630759	0.49377470667174517	0.7331337702599885	0.33068802207397296	0.40506831943348587	0.9168904529297405	0.23974716300053872	0.41487680954530254	0.9940461992905357	0.23977021052321443	0.4139130886989071	1.0022196443813691	0.2425516313451699	0.4285321242274833	0.9969288179077574	0.1213535842559707	0.44632621591922356	0.45371463691077013	0.04538398093859787	0.5298042245545475	0.7113747400949882	0.16183421014890945	0.39231852264856554	0.9001942000161989	0.24538343907503313	0.40097474968962105	0.9565206069224272	0.2516858401283666	0.4152237201901297	0.9971250423280686	0.2419033609508054	0.427867976030072	1.001185401749542
3	0.05	0.34720946264946334	0.5805542193154912	0.9554571403913098	0.3103929010843417	0.6950525105005463	1.3534645942561616	0.2773649914235854	0.8254841262210219	1.7442190466344416	0.2868095380848289	0.6582573439362639	1.7800366713809848	0.33307349593100716	0.6694059945890906	1.7731363475645778	0.25947427565284037	0.8571338061408241	1.7811553777565687	0.13236631142782204	0.5891132977539824	0.9431080929825549	0.11798306670324997	0.6904487753266759	1.325267354306696	0.09615247586385524	0.7877412003218254	1.7198721629514702	0.12065756224552066	0.621833352331122	1.7565922970993515	0.07265684261390769	0.6506925915411291	1.7535930383380198	0.11354259737749052	0.8268402296262223	1.7599919733707885	0.28246135448366966	0.465241000993648	0.38999863852600736	0.28583726270770454	0.3900972606976297	0.1721867075296808	0.26908917888921813	0.332565474843587	0.27890954353153036	0.42287265582891775	0.46072233866594303	0.48162039729631206	0.445133501722609	0.49454730179457623	0.7295102391538697	0.33073864321704893	0.40522499783160143	0.916789476454335	0.24447000465619115	0.40276443139156104	0.9918242890647933	0.23981280562381774	0.41382222986893447	1.0019202312934639	0.24254315214421562	0.42860538007839033	0.9969285183558343	0.11769251292310477	0.44426385860834805	0.45365924809389746	0.049381469979004534	0.5324530188219807	0.7075791990129948	0.16541756571969188	0.39375515926107907	0.9003361675085345	0.249182011200173	0.4008616374483283	0.9532028044790887	0.2519058675552043	0.4148548730507156	0.9969665872202709	0.24121554128619632	0.42851704194087387	1.0047709190683716
4	0.06666666666666667	0.34696649792777223	0.5813843099705719	0.9519375272948193	0.31033078562856686	0.6950326639493193	1.353598922693336	0.277341815913818	0.8255450490638411	1.744233382117917	0.2867596918759695	0.6588377054515847	1.7804564784395043	0.3236730991748993	0.6841230621309976	1.7791613730357156	0.2598066145455979	0.8566061209426314	1.7856435364740393	0.13230432969628933	0.5892232267668455	0.9431582116298978	0.11793291578979469	0.6903238421566069	1.3251787423768322	0.09752031277396844	0.786503951272259	1.7147318198972024	0.12024153136032191	0.6187968391162405	1.7518988616903106	0.072680242348377	0.6512323884195157	1.7540742633674578	0.11347547529954712	0.8275454483195069	1.760257422730037	0.2869918278079525	0.4523861802242847	0.3903903668771848	0.2886635821682154	0.40136129935965487	0.17103041485219436	0.26910353630153283	0.33253843459837223	0.27891344742410357	0.42281052945303754	0.46117074667674346	0.4782310144922299	0.44860621842622556	0.5063351424222234	0.7343608417684769	0.3310557596166912	0.4072395191991031	0.9203700537019497	0.24449667141136727	0.40268927868463916	0.9917020174164205	0.23977622708620222	0.4136691038327013	1.0016358542403552	0.24228735784612448	0.4293842743489523	0.9936297625413176	0.1263494127066845	0.4348488595228651	0.4503250869819583	0.04947981572262328	0.5324473811347992	0.7076056872227341	0.1679303141798982	0.40563572367500506	0.9021229613893891	0.2491933256345901	0.40106048962927626	0.9532270189195436	0.2518856389446636	0.4149082558586058	0.996994474979663	0.241210983271137	0.4286519664149084	1.0046978436305434
5	0.08333333333333333	0.34697943756696265	0.5815192662736354	0.9520597648048423	0.3103194058707878	0.695187779494325	1.3537418634036	0.27206783262888434	0.8431738180039254	1.7512648275443272	0.2874447268060953	0.6619758654054193	1.7847888928956173	0.32413556427728923	0.6867627835051927	1.780012944330247	0.2598585552567391	0.8577066313074927	1.7863302070664282	0.13230891685724894	0.5892816716485397	0.9431649298391755	0.11793277585833548	0.6903537538429163	1.3252523428155663	0.09614523383419464	0.787662089377771	1.719804412944156	0.12015204304376824	0.6184289799934788	1.7520647163381267	0.06696148926036569	0.6669951647710264	1.7610746009230227	0.11349034204901183	0.8277587369694849	1.7604182667480488	0.28700154506094	0.45234677779851284	0.39031514625468355	0.28591784632665257	0.3898698192872204	0.17211932695440185	0.26907422462821223	0.33250905718464535	0.2789035635708658	0.42284281682868463	0.4612010608597669	0.478144990718537	0.44526112203614104	0.49458605570192626	0.7332877549457467	0.3310298251494592	0.4070972821212813	0.9204444599795728	0.23953625046732582	0.4155297770234911	0.9905779709824726	0.23959171335968504	0.413945108155098	1.0017370544864024	0.24244362388402932	0.42877801689421874	0.9969789282960573	0.12182422991482596	0.4463578614345646	0.44666355445302514	0.049467290965466766	0.5325722455716806	0.7075196551470823	0.16537057704558503	0.39384481811623917	0.9002857562641772	0.2462034338917592	0.3999132793652549	0.9523999620187308	0.2517335717732405	0.415011218587955	0.9970651063665045	0.24119753256116544	0.4286662989050786	1.0045063521678004
